<svg id="Layer_1" data-name="Layer 1" xmlns="http://www.w3.org/2000/svg" viewBox="0 0 64 64"><defs><style>.cls-1{fill:#a2a4aa;}.cls-2{fill:#ff4d43;}</style></defs><title>notifOn</title><path class="cls-1" d="M34.41,53.28H25.25a1.22,1.22,0,0,0-1.16,1.59,6.06,6.06,0,0,0,11.5,0A1.22,1.22,0,0,0,34.41,53.28Z"/><path class="cls-1" d="M46.48,41.11V31h0A12.91,12.91,0,0,1,35.77,10.82a16.56,16.56,0,0,0-2.08-.65V8.4a3.9,3.9,0,1,0-7.79,0v1.76A16.78,16.78,0,0,0,13,26.41V41.05h0L7.39,46.32c-1.21,1.67.12,3.89,2.34,3.89H50.46c2.29,0,3.61-2.35,2.25-4Z"/><circle class="cls-2" cx="46.46" cy="18.05" r="11.43"/></svg>