<svg id="Layer_1" data-name="Layer 1" xmlns="http://www.w3.org/2000/svg" viewBox="0 0 64 64"><defs><style>.cls-1{fill:#a2a4aa;}</style></defs><title>notifOff</title><path class="cls-1" d="M36.7,52.89h-9a1.19,1.19,0,0,0-1.14,1.56,6,6,0,0,0,11.29,0A1.19,1.19,0,0,0,36.7,52.89Z"/><path class="cls-1" d="M54.66,45.93l-6.11-5V26.51A16.47,16.47,0,0,0,36,10.56V8.82a3.82,3.82,0,1,0-7.65,0v1.72a16.47,16.47,0,0,0-12.62,16V40.88h0l-5.53,5.17c-1.19,1.64.12,3.82,2.3,3.82h40C54.7,49.87,56,47.56,54.66,45.93Z"/></svg>